# xmcd CD database file
#
# Track frame offsets:
#	150
#	13469
#	26137
#	40347
#	54034
#	67776
#	89634
#	100981
#	113086
#	125532
#	138304
#	150671
#	161260
#	175530
#	187866
#
# Disc length: 2619 seconds
#
# Revision: 1
# Processed by: cddbd v1.5.1PL2 Copyright (c) Steve Scherf et al.
# Submitted via: jetAudio 5
#
DISCID=b90a390f
DTITLE=The Lucky Tomblin Band - In a Honky-Tonk Mood
DYEAR=1900
DGENRE=
TTITLE0=I Done It
TTITLE1=The Keys In The Mail Box
TTITLE2=Trademark
TTITLE3=Lonesome Hearted Blues
TTITLE4=I Don't Believe I'll Fall In Love Today
TTITLE5=Cold War
TTITLE6=You Are The One
TTITLE7=Honky Tonk Hardwood Floor
TTITLE8=I Love You So Much It Hurts
TTITLE9=There She Goes
TTITLE10=Squaws Along The Yukon
TTITLE11=I Got The Bull By The Horns
TTITLE12=Trouble In Mind
TTITLE13=Loose Talk
TTITLE14=Thanks Alot
EXTD=
EXTT0=
EXTT1=
EXTT2=
EXTT3=
EXTT4=
EXTT5=
EXTT6=
EXTT7=
EXTT8=
EXTT9=
EXTT10=
EXTT11=
EXTT12=
EXTT13=
EXTT14=
PLAYORDER=
